<svg version="1.1" className="highcharts-root"
                    style="font-family: &quot;Lucida Grande&quot;, &quot;Lucida Sans Unicode&quot;, Arial, Helvetica, sans-serif; font-size: 12px;"
                    xmlns="http://www.w3.org/2000/svg" width="315" height="97" viewBox="0 0 315 97" role="img"
                    aria-label="">
                    <desc>Created with Highcharts 10.2.1</desc>
                    <defs>
                        <clipPath id="highcharts-71tc49n-1-">
                            <rect x="0" y="0" width="252" height="66" fill="none"></rect>
                        </clipPath>
                        <clipPath id="highcharts-71tc49n-17-">
                            <rect x="0" y="0" width="252" height="66" fill="none"></rect>
                        </clipPath>
                    </defs>
                    <rect fill="#ffffff" className="highcharts-background" x="0" y="0" width="315" height="97" rx="0"
                        ry="0"></rect>
                    <rect fill="none" className="highcharts-plot-background" x="53" y="10" width="252" height="66"></rect>
                    <g className="highcharts-grid highcharts-xaxis-grid" data-z-index="1">
                        <path fill="none" stroke-dasharray="none" data-z-index="1" className="highcharts-grid-line"
                            d="M 69.5 10 L 69.5 76" opacity="1"></path>
                        <path fill="none" stroke-dasharray="none" data-z-index="1" className="highcharts-grid-line"
                            d="M 86.5 10 L 86.5 76" opacity="1"></path>
                        <path fill="none" stroke-dasharray="none" data-z-index="1" className="highcharts-grid-line"
                            d="M 102.5 10 L 102.5 76" opacity="1"></path>
                        <path fill="none" stroke-dasharray="none" data-z-index="1" className="highcharts-grid-line"
                            d="M 119.5 10 L 119.5 76" opacity="1"></path>
                        <path fill="none" stroke-dasharray="none" data-z-index="1" className="highcharts-grid-line"
                            d="M 136.5 10 L 136.5 76" opacity="1"></path>
                        <path fill="none" stroke-dasharray="none" data-z-index="1" className="highcharts-grid-line"
                            d="M 153.5 10 L 153.5 76" opacity="1"></path>
                        <path fill="none" stroke-dasharray="none" data-z-index="1" className="highcharts-grid-line"
                            d="M 170.5 10 L 170.5 76" opacity="1"></path>
                        <path fill="none" stroke-dasharray="none" data-z-index="1" className="highcharts-grid-line"
                            d="M 186.5 10 L 186.5 76" opacity="1"></path>
                        <path fill="none" stroke-dasharray="none" data-z-index="1" className="highcharts-grid-line"
                            d="M 203.5 10 L 203.5 76" opacity="1"></path>
                        <path fill="none" stroke-dasharray="none" data-z-index="1" className="highcharts-grid-line"
                            d="M 220.5 10 L 220.5 76" opacity="1"></path>
                        <path fill="none" stroke-dasharray="none" data-z-index="1" className="highcharts-grid-line"
                            d="M 237.5 10 L 237.5 76" opacity="1"></path>
                        <path fill="none" stroke-dasharray="none" data-z-index="1" className="highcharts-grid-line"
                            d="M 254.5 10 L 254.5 76" opacity="1"></path>
                        <path fill="none" stroke-dasharray="none" data-z-index="1" className="highcharts-grid-line"
                            d="M 270.5 10 L 270.5 76" opacity="1"></path>
                        <path fill="none" stroke-dasharray="none" data-z-index="1" className="highcharts-grid-line"
                            d="M 287.5 10 L 287.5 76" opacity="1"></path>
                        <path fill="none" stroke-dasharray="none" data-z-index="1" className="highcharts-grid-line"
                            d="M 304.5 10 L 304.5 76" opacity="1"></path>
                        <path fill="none" stroke-dasharray="none" data-z-index="1" className="highcharts-grid-line"
                            d="M 52.5 10 L 52.5 76" opacity="1"></path>
                    </g>
                    <g className="highcharts-grid highcharts-yaxis-grid" data-z-index="1">
                        <path fill="none" stroke-dasharray="none" data-z-index="1" className="highcharts-grid-line"
                            d="M 53 76.5 L 305 76.5" opacity="1"></path>
                        <path fill="none" stroke-dasharray="none" data-z-index="1" className="highcharts-grid-line"
                            d="M 53 10.5 L 305 10.5" opacity="1"></path>
                    </g>
                    <rect fill="none" className="highcharts-plot-border" data-z-index="1" x="53" y="10" width="252"
                        height="66"></rect>
                    <g className="highcharts-axis highcharts-xaxis" data-z-index="2">
                        <path fill="none" className="highcharts-axis-line" data-z-index="7" d="M 53 76 L 305 76"></path>
                    </g>
                    <g className="highcharts-axis highcharts-yaxis" data-z-index="2">
                        <path fill="none" className="highcharts-axis-line" data-z-index="7" d="M 53 10 L 53 76"></path>
                    </g>
                    <g className="highcharts-series-group" data-z-index="3">
                        <g className="highcharts-series highcharts-series-0 highcharts-spline-series" data-z-index="0.1"
                            opacity="1" transform="translate(53,10) scale(1 1)"
                            clip-path="url(#highcharts-71tc49n-17-)">
                            <path fill="none"
                                d="M 8.4 36.199075 C 8.4 36.199075 18.479999999999997 44.31822999999999 25.2 48.498725 C 31.919999999999998 52.67922 35.28 57.10155 42 57.10155 C 48.72 57.10155 52.08 21.058950000000003 58.8 21.058950000000003 C 65.52 21.058950000000003 68.88 30.240375 75.6 32.57595 C 82.32000000000001 34.911525 85.68 34.911525 92.4 34.911525 C 99.12 34.911525 102.48000000000002 34.356134999999995 109.2 33.741125 C 115.92 33.12611499999999 119.28 31.836475 126 31.836475 C 132.72 31.836475 136.08 36.583635 142.8 40.585875 C 149.52 44.588115 152.88 51.847675 159.6 51.847675 C 166.32 51.847675 169.68 35.06822 176.4 27.466450000000002 C 183.12 19.864680000000003 186.47999999999996 17.407775000000008 193.2 13.838825 C 199.92 10.269875000000006 203.28 11.725285000000001 210 9.621699999999997 C 216.71999999999997 7.518115000000002 220.08 3.3209000000000017 226.8 3.3209000000000017 C 233.52000000000004 3.3209000000000017 243.6 13.550075 243.6 13.550075"
                                className="highcharts-graph" data-z-index="1" stroke="#1e2022" stroke-width="1"
                                stroke-linejoin="round" stroke-linecap="round"></path>
                            <path fill="none"
                                d="M 8.4 36.199075 C 8.4 36.199075 18.479999999999997 44.31822999999999 25.2 48.498725 C 31.919999999999998 52.67922 35.28 57.10155 42 57.10155 C 48.72 57.10155 52.08 21.058950000000003 58.8 21.058950000000003 C 65.52 21.058950000000003 68.88 30.240375 75.6 32.57595 C 82.32000000000001 34.911525 85.68 34.911525 92.4 34.911525 C 99.12 34.911525 102.48000000000002 34.356134999999995 109.2 33.741125 C 115.92 33.12611499999999 119.28 31.836475 126 31.836475 C 132.72 31.836475 136.08 36.583635 142.8 40.585875 C 149.52 44.588115 152.88 51.847675 159.6 51.847675 C 166.32 51.847675 169.68 35.06822 176.4 27.466450000000002 C 183.12 19.864680000000003 186.47999999999996 17.407775000000008 193.2 13.838825 C 199.92 10.269875000000006 203.28 11.725285000000001 210 9.621699999999997 C 216.71999999999997 7.518115000000002 220.08 3.3209000000000017 226.8 3.3209000000000017 C 233.52000000000004 3.3209000000000017 243.6 13.550075 243.6 13.550075"
                                data-z-index="2" className="highcharts-tracker-line" stroke-linecap="round"
                                stroke-linejoin="round" stroke="rgba(192,192,192,0.0001)" stroke-width="21"
                                style="cursor: pointer;"></path>
                        </g>
                        <g className="highcharts-markers highcharts-series-0 highcharts-spline-series highcharts-tracker"
                            data-z-index="0.1" opacity="1" transform="translate(53,10) scale(1 1)" clip-path="none"
                            style="cursor: pointer;">
                            <path fill="#1e2022" d="M 243 13.550075 A 0 0 0 1 1 243 13.550075 Z"
                                className="highcharts-halo highcharts-color-undefined" data-z-index="-1" fill-opacity="0.25"
                                visibility="hidden"></path>
                            <path fill="#1e2022" d="M 0 0" stroke="#ffffff" stroke-width="1" opacity="1"
                                className="highcharts-point" visibility="hidden"></path>
                        </g>
                    </g><text x="0" text-anchor="start" className="highcharts-title" data-z-index="4"
                        style="color: rgb(51, 51, 51); font-size: 18px; fill: rgb(51, 51, 51);" y="24"></text><text
                        x="153" text-anchor="middle" className="highcharts-subtitle" data-z-index="4"
                        style="color: rgb(102, 102, 102); fill: rgb(102, 102, 102);" y="24"></text><text x="0"
                        text-anchor="start" className="highcharts-caption" data-z-index="4"
                        style="color: rgb(102, 102, 102); fill: rgb(102, 102, 102);" y="109"></text>
                    <g className="highcharts-axis-labels highcharts-xaxis-labels" data-z-index="7"><text x="61.4"
                            text-anchor="middle" transform="translate(0,0)"
                            style="color: rgb(102, 102, 102); cursor: default; font-size: 11px; fill: rgb(102, 102, 102);"
                            y="95" opacity="1">Mar 17</text><text x="0" text-anchor="middle" transform="translate(0,0)"
                            style="color: rgb(102, 102, 102); cursor: default; font-size: 11px; fill: rgb(102, 102, 102);"
                            visibility="hidden">Mar 18</text><text x="0" text-anchor="middle" transform="translate(0,0)"
                            style="color: rgb(102, 102, 102); cursor: default; font-size: 11px; fill: rgb(102, 102, 102);"
                            visibility="hidden">Mar 19</text><text x="0" text-anchor="middle" transform="translate(0,0)"
                            style="color: rgb(102, 102, 102); cursor: default; font-size: 11px; fill: rgb(102, 102, 102);"
                            visibility="hidden">Mar 20</text><text x="0" text-anchor="middle" transform="translate(0,0)"
                            style="color: rgb(102, 102, 102); cursor: default; font-size: 11px; fill: rgb(102, 102, 102);"
                            visibility="hidden">Mar 21</text><text x="0" text-anchor="middle" transform="translate(0,0)"
                            style="color: rgb(102, 102, 102); cursor: default; font-size: 11px; fill: rgb(102, 102, 102);"
                            visibility="hidden">Mar 22</text><text x="0" text-anchor="middle" transform="translate(0,0)"
                            style="color: rgb(102, 102, 102); cursor: default; font-size: 11px; fill: rgb(102, 102, 102);"
                            visibility="hidden">Mar 23</text><text x="179" text-anchor="middle"
                            transform="translate(0,0)"
                            style="color: rgb(102, 102, 102); cursor: default; font-size: 11px; fill: rgb(102, 102, 102);"
                            y="95" opacity="1">Mar 24</text><text x="0" text-anchor="middle" transform="translate(0,0)"
                            style="color: rgb(102, 102, 102); cursor: default; font-size: 11px; fill: rgb(102, 102, 102);"
                            visibility="hidden">Mar 25</text><text x="0" text-anchor="middle" transform="translate(0,0)"
                            style="color: rgb(102, 102, 102); cursor: default; font-size: 11px; fill: rgb(102, 102, 102);"
                            visibility="hidden">Mar 26</text><text x="0" text-anchor="middle" transform="translate(0,0)"
                            style="color: rgb(102, 102, 102); cursor: default; font-size: 11px; fill: rgb(102, 102, 102);"
                            visibility="hidden">Mar 27</text><text x="0" text-anchor="middle" transform="translate(0,0)"
                            style="color: rgb(102, 102, 102); cursor: default; font-size: 11px; fill: rgb(102, 102, 102);"
                            visibility="hidden">Mar 28</text><text x="0" text-anchor="middle" transform="translate(0,0)"
                            style="color: rgb(102, 102, 102); cursor: default; font-size: 11px; fill: rgb(102, 102, 102);"
                            visibility="hidden">Mar 29</text><text x="0" text-anchor="middle" transform="translate(0,0)"
                            style="color: rgb(102, 102, 102); cursor: default; font-size: 11px; fill: rgb(102, 102, 102);"
                            visibility="hidden">Mar 30</text><text x="296.6" text-anchor="middle"
                            transform="translate(0,0)"
                            style="color: rgb(102, 102, 102); cursor: default; font-size: 11px; fill: rgb(102, 102, 102);"
                            y="95" opacity="1">Mar 31</text></g>
                    <g className="highcharts-axis-labels highcharts-yaxis-labels" data-z-index="7"><text x="38"
                            text-anchor="end" transform="translate(0,0)"
                            style="color: rgb(102, 102, 102); cursor: default; font-size: 11px; fill: rgb(102, 102, 102);"
                            y="81" opacity="1">960k</text><text x="38" text-anchor="end" transform="translate(0,0)"
                            style="color: rgb(102, 102, 102); cursor: default; font-size: 11px; fill: rgb(102, 102, 102);"
                            y="15" opacity="1">1 200k</text></g>
                    <g className="highcharts-label highcharts-tooltip highcharts-color-undefined" data-z-index="8"
                        transform="translate(122,1)" style="cursor: default; white-space: nowrap; pointer-events: none;"
                        opacity="0" visibility="hidden">
                        <path fill="none" className="highcharts-label-box highcharts-tooltip-box highcharts-shadow"
                            d="M 3.5 0.5 L 156.5 0.5 C 159.5 0.5 159.5 0.5 159.5 3.5 L 159.5 17 L 165.5 23 L 159.5 29 L 159.5 70.5 C 159.5 73.5 159.5 73.5 156.5 73.5 L 3.5 73.5 C 0.5 73.5 0.5 73.5 0.5 70.5 L 0.5 3.5 C 0.5 0.5 0.5 0.5 3.5 0.5"
                            stroke="#000000" stroke-opacity="0.049999999999999996" stroke-width="5"
                            transform="translate(1, 1)"></path>
                        <path fill="none" className="highcharts-label-box highcharts-tooltip-box highcharts-shadow"
                            d="M 3.5 0.5 L 156.5 0.5 C 159.5 0.5 159.5 0.5 159.5 3.5 L 159.5 17 L 165.5 23 L 159.5 29 L 159.5 70.5 C 159.5 73.5 159.5 73.5 156.5 73.5 L 3.5 73.5 C 0.5 73.5 0.5 73.5 0.5 70.5 L 0.5 3.5 C 0.5 0.5 0.5 0.5 3.5 0.5"
                            stroke="#000000" stroke-opacity="0.09999999999999999" stroke-width="3"
                            transform="translate(1, 1)"></path>
                        <path fill="none" className="highcharts-label-box highcharts-tooltip-box highcharts-shadow"
                            d="M 3.5 0.5 L 156.5 0.5 C 159.5 0.5 159.5 0.5 159.5 3.5 L 159.5 17 L 165.5 23 L 159.5 29 L 159.5 70.5 C 159.5 73.5 159.5 73.5 156.5 73.5 L 3.5 73.5 C 0.5 73.5 0.5 73.5 0.5 70.5 L 0.5 3.5 C 0.5 0.5 0.5 0.5 3.5 0.5"
                            stroke="#000000" stroke-opacity="0.15" stroke-width="1" transform="translate(1, 1)"></path>
                        <path fill="rgba(247,247,247,0.85)" className="highcharts-label-box highcharts-tooltip-box"
                            d="M 3.5 0.5 L 156.5 0.5 C 159.5 0.5 159.5 0.5 159.5 3.5 L 159.5 17 L 165.5 23 L 159.5 29 L 159.5 70.5 C 159.5 73.5 159.5 73.5 156.5 73.5 L 3.5 73.5 C 0.5 73.5 0.5 73.5 0.5 70.5 L 0.5 3.5 C 0.5 0.5 0.5 0.5 3.5 0.5"
                            stroke="#1e2022" stroke-width="1"></path><text x="8" data-z-index="1" y="18"
                            style="color: rgb(51, 51, 51); font-size: 12px; fill: rgb(51, 51, 51);">
                            <tspan style="font-size: 10px;">Friday, March 31, 2023</tspan>
                            <tspan className="highcharts-br" dy="15" x="8">&ZeroWidthSpace;</tspan>
                            <tspan className="text-dark">
                                <tspan>
                                    <tspan>
                                        <tspan style="padding: 0px;">
                                            <tspan className="text-dark">Transactions: </tspan>
                                            <tspan style="font-weight: bold;">1,150,727</tspan>
                                            <tspan className="highcharts-br" dy="15" x="8">&ZeroWidthSpace;</tspan>
                                            <tspan className="highcharts-br" dy="15" x="8">&ZeroWidthSpace;</tspan>Price:
                                            $1,822.21
                                        </tspan>
                                    </tspan>
                                </tspan>
                            </tspan>
                        </text>
                    </g>
                </svg>
